# Blender 3.4.1
# www.blender.org
mtllib color.mtl
o palette
v -0.055325 0.014789 0.000328
v 0.052930 0.019535 0.005028
v -0.035735 0.060486 0.002219
v 0.052930 0.058922 0.006188
v -0.031593 0.056959 -0.087281
v 0.042416 0.065674 -0.073676
v -0.032214 0.016483 -0.087820
v 0.042416 0.019361 -0.076930
v -0.038381 0.075660 -0.046151
v 0.049803 0.032627 -0.085268
v 0.004140 0.009081 -0.090014
v -0.038192 0.034169 -0.095791
v 0.066069 0.015978 -0.030296
v -0.056185 0.016578 -0.057534
v 0.001766 0.008910 0.015944
v 0.061788 0.038920 0.013409
v 0.001766 0.056500 0.020767
v -0.053052 0.040672 0.016947
v 0.066069 0.075862 -0.033163
v 0.004270 0.067723 -0.091178
v 0.004424 0.030788 0.032606
v 0.004830 0.100574 -0.045871
v 0.006875 0.032693 -0.101259
v 0.004823 0.009218 -0.049784
v 0.077435 0.044819 -0.032695
v -0.063143 0.048945 -0.054937
vn -0.2905 -0.5267 0.7989
vn 0.3101 -0.5550 0.7719
vn 0.2314 0.4235 0.8759
vn -0.2133 0.5427 0.8124
vn -0.3196 0.8428 0.4330
vn 0.1754 0.8414 0.5112
vn 0.3633 0.7877 -0.4975
vn -0.3762 0.7836 -0.4944
vn -0.1445 0.3119 -0.9391
vn 0.3677 0.3307 -0.8692
vn 0.3459 -0.5123 -0.7860
vn -0.1307 -0.4267 -0.8949
vn -0.1472 -0.9881 -0.0454
vn 0.1971 -0.9761 -0.0917
vn 0.1485 -0.9874 0.0555
vn -0.1077 -0.9940 -0.0188
vn 0.8675 -0.4004 0.2952
vn 0.8067 -0.4553 -0.3766
vn 0.7944 0.3219 -0.5151
vn 0.8363 0.3895 0.3858
vn -0.8193 -0.2663 -0.5078
vn -0.9916 -0.1047 0.0756
vn -0.7125 0.6707 0.2062
vn -0.6494 0.5823 -0.4892
vt 0.375000 1.000000
vt 0.375000 0.000000
vt 0.625000 1.000000
vt 0.625000 0.000000
vt 0.375000 0.250000
vt 0.625000 0.250000
vt 0.375000 0.500000
vt 0.125000 0.250000
vt 0.625000 0.500000
vt 0.875000 0.250000
vt 0.375000 0.750000
vt 0.125000 0.000000
vt 0.625000 0.750000
vt 0.875000 0.000000
vt 0.375000 0.375000
vt 0.250000 0.250000
vt 0.625000 0.625000
vt 0.875000 0.125000
vt 0.500000 0.750000
vt 0.375000 0.625000
vt 0.125000 0.125000
vt 0.625000 0.875000
vt 0.750000 0.000000
vt 0.375000 0.875000
vt 0.250000 0.000000
vt 0.500000 0.000000
vt 0.500000 1.000000
vt 0.625000 0.125000
vt 0.500000 0.250000
vt 0.375000 0.125000
vt 0.625000 0.375000
vt 0.750000 0.250000
vt 0.500000 0.500000
vt 0.500000 0.125000
vt 0.500000 0.375000
vt 0.500000 0.625000
vt 0.500000 0.875000
vt 0.750000 0.125000
vt 0.250000 0.125000
s 0
usemtl lambert7SG
f 1/2/1 15/26/1 21/34/1 18/30/1
f 15/26/2 2/4/2 16/28/2 21/34/2
f 21/34/3 16/28/3 4/6/3 17/29/3
f 18/30/4 21/34/4 17/29/4 3/5/4
f 3/5/5 17/29/5 22/35/5 9/15/5
f 17/29/6 4/6/6 19/31/6 22/35/6
f 22/35/7 19/31/7 6/9/7 20/33/7
f 9/15/8 22/35/8 20/33/8 5/7/8
f 5/7/9 20/33/9 23/36/9 12/20/9
f 20/33/10 6/9/10 10/17/10 23/36/10
f 23/36/11 10/17/11 8/13/11 11/19/11
f 12/20/12 23/36/12 11/19/12 7/11/12
f 7/11/13 11/19/13 24/37/13 14/24/13
f 11/19/14 8/13/14 13/22/14 24/37/14
f 24/37/15 13/22/15 2/3/15 15/27/15
f 14/24/16 24/37/16 15/27/16 1/1/16
f 2/4/17 13/23/17 25/38/17 16/28/17
f 13/23/18 8/14/18 10/18/18 25/38/18
f 25/38/19 10/18/19 6/10/19 19/32/19
f 16/28/20 25/38/20 19/32/20 4/6/20
f 7/12/21 14/25/21 26/39/21 12/21/21
f 14/25/22 1/2/22 18/30/22 26/39/22
f 26/39/23 18/30/23 3/5/23 9/16/23
f 12/21/24 26/39/24 9/16/24 5/8/24
